<svg xmlns="http://www.w3.org/2000/svg" xmlns:xlink="http://www.w3.org/1999/xlink" xmlns:lucid="lucid" width="752" height="192"><g transform="translate(1.6772554002540119 -9.000000000000014)" lucid:page-tab-id="0_0"><path d="M0 0h757.65v209.56H0z" fill="#fff"/><path d="M18.32 61h160v120h-160z" stroke="#000" stroke-width="2" fill="#fff"/><use xlink:href="#a" transform="matrix(1,0,0,1,23.322744599745988,66.00058487380191) translate(41.525 59.0875)"/><path d="M418.32 169c0 6.63-26.86 12-60 12-33.13 0-60-5.37-60-12V73c0-6.63 26.87-12 60-12 33.14 0 60 5.37 60 12z" stroke="#000" stroke-width="2" fill="#fff"/><path d="M418.32 73c0 6.63-26.86 12-60 12-33.13 0-60-5.37-60-12" stroke="#000" stroke-width="2" fill="none"/><use xlink:href="#b" transform="matrix(1,0,0,1,303.322744599746,90.00058487380191) translate(35.525 46.65)"/><path d="M538.32 61h160v120h-160z" stroke="#000" stroke-width="2" fill="#fff"/><use xlink:href="#c" transform="matrix(1,0,0,1,543.322744599746,66.00058487380191) translate(36.05 59.0875)"/><path d="M180.32 121h98.5" stroke="#000" stroke-width="2" fill="none"/><path d="M180.35 122h-1.03v-2h1.03z"/><path d="M294.1 121l-14.28 4.64v-9.27z" stroke="#000" stroke-width="2"/><path d="M420.32 121h98.5" stroke="#000" stroke-width="2" fill="none"/><path d="M420.35 122h-1.03v-2h1.03z"/><path d="M534.1 121l-14.28 4.64v-9.27z" stroke="#000" stroke-width="2"/><path d="M700.32 121h39V20h-381v21.5" stroke="#000" stroke-width="2" fill="none"/><path d="M700.35 122h-1.03v-2h1.03z"/><path d="M358.32 56.76L353.7 42.5h9.26z" stroke="#000" stroke-width="2"/><defs><path d="M185-189c-5-48-123-54-124 2 14 75 158 14 163 119 3 78-121 87-175 55-17-10-28-26-33-46l33-7c5 56 141 63 141-1 0-78-155-14-162-118-5-82 145-84 179-34 5 7 8 16 11 25" id="d"/><path d="M96-169c-40 0-48 33-48 73s9 75 48 75c24 0 41-14 43-38l32 2c-6 37-31 61-74 61-59 0-76-41-82-99-10-93 101-131 147-64 4 7 5 14 7 22l-32 3c-4-21-16-35-41-35" id="e"/><path d="M141-36C126-15 110 5 73 4 37 3 15-17 15-53c-1-64 63-63 125-63 3-35-9-54-41-54-24 1-41 7-42 31l-33-3c5-37 33-52 76-52 45 0 72 20 72 64v82c-1 20 7 32 28 27v20c-31 9-61-2-59-35zM48-53c0 20 12 33 32 33 41-3 63-29 60-74-43 2-92-5-92 41" id="f"/><path d="M117-194c89-4 53 116 60 194h-32v-121c0-31-8-49-39-48C34-167 62-67 57 0H25l-1-190h30c1 10-1 24 2 32 11-22 29-35 61-36" id="g"/><path d="M100-194c63 0 86 42 84 106H49c0 40 14 67 53 68 26 1 43-12 49-29l28 8c-11 28-37 45-77 45C44 4 14-33 15-96c1-61 26-98 85-98zm52 81c6-60-76-77-97-28-3 7-6 17-6 28h103" id="h"/><path d="M114-163C36-179 61-72 57 0H25l-1-190h30c1 12-1 29 2 39 6-27 23-49 58-41v29" id="i"/><g id="a"><use transform="matrix(0.05,0,0,0.05,0,0)" xlink:href="#d"/><use transform="matrix(0.05,0,0,0.05,12,0)" xlink:href="#e"/><use transform="matrix(0.05,0,0,0.05,21,0)" xlink:href="#f"/><use transform="matrix(0.05,0,0,0.05,31,0)" xlink:href="#g"/><use transform="matrix(0.05,0,0,0.05,41,0)" xlink:href="#g"/><use transform="matrix(0.05,0,0,0.05,51,0)" xlink:href="#h"/><use transform="matrix(0.05,0,0,0.05,61,0)" xlink:href="#i"/></g><path d="M240 0l2-218c-23 76-54 145-80 218h-23L58-218 59 0H30v-248h44l77 211c21-75 51-140 76-211h43V0h-30" id="j"/><path d="M160-131c35 5 61 23 61 61C221 17 115-2 30 0v-248c76 3 177-17 177 60 0 33-19 50-47 57zm-97-11c50-1 110 9 110-42 0-47-63-36-110-37v79zm0 115c55-2 124 14 124-45 0-56-70-42-124-44v89" id="k"/><g id="b"><use transform="matrix(0.05,0,0,0.05,0,0)" xlink:href="#d"/><use transform="matrix(0.05,0,0,0.05,12,0)" xlink:href="#j"/><use transform="matrix(0.05,0,0,0.05,26.950000000000003,0)" xlink:href="#k"/></g><path d="M140-251c81 0 123 46 123 126C263-46 219 4 140 4 59 4 17-45 17-125s42-126 123-126zm0 227c63 0 89-41 89-101s-29-99-89-99c-61 0-89 39-89 99S79-25 140-24" id="l"/><path d="M210-169c-67 3-38 105-44 169h-31v-121c0-29-5-50-35-48C34-165 62-65 56 0H25l-1-190h30c1 10-1 24 2 32 10-44 99-50 107 0 11-21 27-35 58-36 85-2 47 119 55 194h-31v-121c0-29-5-49-35-48" id="m"/><path d="M179-190L93 31C79 59 56 82 12 73V49c39 6 53-20 64-50L1-190h34L92-34l54-156h33" id="n"/><path d="M115-194c55 1 70 41 70 98S169 2 115 4C84 4 66-9 55-30l1 105H24l-1-265h31l2 30c10-21 28-34 59-34zm-8 174c40 0 45-34 45-75s-6-73-45-74c-42 0-51 32-51 76 0 43 10 73 51 73" id="o"/><path d="M85-194c31 0 48 13 60 33l-1-100h32l1 261h-30c-2-10 0-23-3-31C134-8 116 4 85 4 32 4 16-35 15-94c0-66 23-100 70-100zm9 24c-40 0-46 34-46 75 0 40 6 74 45 74 42 0 51-32 51-76 0-42-9-74-50-73" id="p"/><path d="M101-234c-31-9-42 10-38 44h38v23H63V0H32v-167H5v-23h27c-7-52 17-82 69-68v24" id="q"/><g id="c"><use transform="matrix(0.05,0,0,0.05,0,0)" xlink:href="#l"/><use transform="matrix(0.05,0,0,0.05,14,0)" xlink:href="#e"/><use transform="matrix(0.05,0,0,0.05,23,0)" xlink:href="#i"/><use transform="matrix(0.05,0,0,0.05,28.950000000000003,0)" xlink:href="#m"/><use transform="matrix(0.05,0,0,0.05,43.9,0)" xlink:href="#n"/><use transform="matrix(0.05,0,0,0.05,52.900000000000006,0)" xlink:href="#o"/><use transform="matrix(0.05,0,0,0.05,62.900000000000006,0)" xlink:href="#p"/><use transform="matrix(0.05,0,0,0.05,72.9,0)" xlink:href="#q"/></g></defs></g></svg>